<mxfile host="app.diagrams.net" agent="Mozilla/5.0 (Windows NT 10.0; Win64; x64) AppleWebKit/537.36 (KHTML, like Gecko) Chrome/140.0.0.0 Safari/537.36" version="28.2.5">
  <diagram id="I1uEsD58bFPPR_qfSrW8" name="ページ1">
    <mxGraphModel dx="786" dy="498" grid="1" gridSize="10" guides="1" tooltips="1" connect="1" arrows="1" fold="1" page="1" pageScale="1" pageWidth="827" pageHeight="1169" math="0" shadow="0">
      <root>
        <mxCell id="0" />
        <mxCell id="1" parent="0" />
        <mxCell id="QdJKaLRLzhFMjyFhrieu-2" value="ユーザー" style="shape=umlActor;verticalLabelPosition=bottom;verticalAlign=top;html=1;" vertex="1" parent="1">
          <mxGeometry x="120" y="220" width="30" height="60" as="geometry" />
        </mxCell>
        <mxCell id="QdJKaLRLzhFMjyFhrieu-3" value="システム&lt;div&gt;メニュー&lt;/div&gt;" style="shape=umlBoundary;whiteSpace=wrap;html=1;" vertex="1" parent="1">
          <mxGeometry x="260" y="170" width="100" height="80" as="geometry" />
        </mxCell>
        <mxCell id="QdJKaLRLzhFMjyFhrieu-4" value="" style="endArrow=classic;html=1;rounded=0;" edge="1" parent="1" source="QdJKaLRLzhFMjyFhrieu-2" target="QdJKaLRLzhFMjyFhrieu-3">
          <mxGeometry width="50" height="50" relative="1" as="geometry">
            <mxPoint x="380" y="290" as="sourcePoint" />
            <mxPoint x="430" y="240" as="targetPoint" />
          </mxGeometry>
        </mxCell>
        <mxCell id="QdJKaLRLzhFMjyFhrieu-5" value="認証処理" style="ellipse;shape=umlControl;whiteSpace=wrap;html=1;" vertex="1" parent="1">
          <mxGeometry x="450" y="180" width="70" height="80" as="geometry" />
        </mxCell>
        <mxCell id="QdJKaLRLzhFMjyFhrieu-6" value="ログアウトを&lt;div&gt;クリック&lt;/div&gt;" style="text;html=1;align=center;verticalAlign=middle;resizable=0;points=[];autosize=1;strokeColor=none;fillColor=default;" vertex="1" parent="1">
          <mxGeometry x="150" y="180" width="100" height="40" as="geometry" />
        </mxCell>
        <mxCell id="QdJKaLRLzhFMjyFhrieu-7" value="BBshop" style="ellipse;shape=umlEntity;whiteSpace=wrap;html=1;" vertex="1" parent="1">
          <mxGeometry x="610" y="240" width="80" height="80" as="geometry" />
        </mxCell>
        <mxCell id="QdJKaLRLzhFMjyFhrieu-8" value="" style="endArrow=open;endFill=1;endSize=12;html=1;rounded=0;" edge="1" parent="1" source="QdJKaLRLzhFMjyFhrieu-3" target="QdJKaLRLzhFMjyFhrieu-5">
          <mxGeometry width="160" relative="1" as="geometry">
            <mxPoint x="330" y="260" as="sourcePoint" />
            <mxPoint x="490" y="260" as="targetPoint" />
          </mxGeometry>
        </mxCell>
        <mxCell id="QdJKaLRLzhFMjyFhrieu-9" value="" style="endArrow=open;endFill=1;endSize=12;html=1;rounded=0;" edge="1" parent="1" source="QdJKaLRLzhFMjyFhrieu-5" target="QdJKaLRLzhFMjyFhrieu-7">
          <mxGeometry width="160" relative="1" as="geometry">
            <mxPoint x="330" y="260" as="sourcePoint" />
            <mxPoint x="530" y="300" as="targetPoint" />
          </mxGeometry>
        </mxCell>
        <mxCell id="QdJKaLRLzhFMjyFhrieu-10" value="" style="endArrow=open;endFill=1;endSize=12;html=1;rounded=0;entryX=0.829;entryY=0.913;entryDx=0;entryDy=0;entryPerimeter=0;exitX=-0.017;exitY=0.604;exitDx=0;exitDy=0;exitPerimeter=0;" edge="1" parent="1" source="QdJKaLRLzhFMjyFhrieu-7" target="QdJKaLRLzhFMjyFhrieu-5">
          <mxGeometry width="160" relative="1" as="geometry">
            <mxPoint x="330" y="260" as="sourcePoint" />
            <mxPoint x="490" y="260" as="targetPoint" />
          </mxGeometry>
        </mxCell>
        <mxCell id="QdJKaLRLzhFMjyFhrieu-11" value="ホーム画面&lt;div&gt;(ログアウト&lt;/div&gt;&lt;div&gt;済み)&lt;/div&gt;" style="shape=umlBoundary;whiteSpace=wrap;html=1;" vertex="1" parent="1">
          <mxGeometry x="270" y="290" width="100" height="80" as="geometry" />
        </mxCell>
        <mxCell id="QdJKaLRLzhFMjyFhrieu-12" value="" style="endArrow=open;endFill=1;endSize=12;html=1;rounded=0;exitX=0.067;exitY=0.804;exitDx=0;exitDy=0;exitPerimeter=0;entryX=0.987;entryY=0.471;entryDx=0;entryDy=0;entryPerimeter=0;" edge="1" parent="1" source="QdJKaLRLzhFMjyFhrieu-5" target="QdJKaLRLzhFMjyFhrieu-11">
          <mxGeometry width="160" relative="1" as="geometry">
            <mxPoint x="330" y="260" as="sourcePoint" />
            <mxPoint x="490" y="260" as="targetPoint" />
          </mxGeometry>
        </mxCell>
      </root>
    </mxGraphModel>
  </diagram>
</mxfile>
